<svg width="24" height="24" viewBox="0 0 24 24" fill="none" xmlns="http://www.w3.org/2000/svg">
<path d="M20.144 5.10073C20.0625 4.99273 19.9535 4.90873 19.828 4.85773L19.47 4.71173C18.106 4.15523 17.121 3.75323 15.949 3.53373C15.2445 3.40173 14.4845 3.80323 14.0955 4.51023C13.454 4.45073 12.7755 4.43073 12.021 4.45023C11.2375 4.43173 10.553 4.45023 9.9105 4.51023C9.5275 3.81473 8.77 3.42323 8.0645 3.55423C6.802 3.79023 5.7625 4.21323 4.178 4.85723C4.0525 4.90823 3.9435 4.99223 3.862 5.10023C1.2005 8.62773 0.14 12.4557 0.62 16.8022C0.646 17.0347 0.7785 17.2417 0.979 17.3627C2.755 18.4312 4.2935 19.1642 5.8215 19.6687C6.5585 19.9122 7.377 19.6347 7.815 18.9952L8.498 17.9957C9.621 18.2792 10.7915 18.4337 12.0035 18.4567C13.185 18.4342 14.3505 18.2787 15.4745 17.9937L16.1945 19.0172C16.53 19.4947 17.0625 19.7617 17.62 19.7617C17.804 19.7617 17.9905 19.7327 18.1735 19.6722C19.7045 19.1677 21.2465 18.4337 23.027 17.3627C23.227 17.2422 23.36 17.0347 23.386 16.8022C23.8655 12.4552 22.805 8.62723 20.144 5.10073ZM8.244 13.9912C7.281 13.9912 6.4885 12.9767 6.4885 11.7437C6.4885 10.5107 7.281 9.49623 8.244 9.49623C9.207 9.49623 9.9995 10.5107 9.9995 11.7437C9.9995 12.9767 9.207 13.9912 8.244 13.9912ZM15.244 14.0047C14.29 14.0047 13.505 12.9842 13.505 11.7437C13.505 10.5032 14.29 9.48273 15.244 9.48273C16.198 9.48273 16.983 10.5032 16.983 11.7437C16.983 12.9842 16.198 14.0047 15.244 14.0047Z" fill="white"/>
</svg>
