<svg width="25" height="25" viewBox="0 0 25 25" fill="none" xmlns="http://www.w3.org/2000/svg">
<g clip-path="url(#clip0_299_1067)">
<path d="M17.0214 22.614C16.1324 22.614 15.5209 22.3255 14.9814 22.071C14.4614 21.826 14.0119 21.614 13.2714 21.614C12.5309 21.614 12.0814 21.826 11.5614 22.071C11.0219 22.3255 10.4104 22.614 9.52142 22.614C7.35842 22.614 3.77142 17.6495 3.77142 12.364C3.77142 8.85901 6.18742 6.11401 9.27142 6.11401C10.2849 6.11401 10.9009 6.40451 11.4444 6.66051C11.9604 6.90401 12.4064 7.11401 13.2714 7.11401C14.1364 7.11401 14.5824 6.90401 15.0984 6.66051C15.6419 6.40451 16.2579 6.11401 17.2714 6.11401C18.6034 6.11401 19.7879 6.60501 20.7924 7.57451C20.9614 7.73751 21.0444 7.97101 21.0159 8.20451C20.9874 8.43801 20.8514 8.64451 20.6484 8.76251C19.4904 9.43601 18.7714 10.8635 18.7714 12.489C18.7714 14.3195 19.7734 15.8935 21.2644 16.4045C21.4599 16.4715 21.6189 16.616 21.7039 16.804C21.7894 16.9915 21.7939 17.2065 21.7154 17.398C20.5019 20.3715 18.4834 22.614 17.0214 22.614ZM13.5214 5.61401C13.3424 5.61401 13.1674 5.55001 13.0294 5.43001C12.8479 5.27201 12.7524 5.03601 12.7744 4.79551C12.7804 4.73401 12.9259 3.27301 14.0709 2.10451C15.1479 1.00451 16.1964 0.677508 16.3119 0.643508C16.5564 0.572508 16.8204 0.630508 17.0124 0.797508C17.2049 0.964008 17.2994 1.21701 17.2639 1.46951C17.2469 1.59001 17.0694 2.68751 16.1479 3.91901C15.1614 5.23701 13.7524 5.58001 13.6929 5.59401C13.6359 5.60751 13.5784 5.61401 13.5214 5.61401Z" fill="white"/>
</g>
<defs>
<clipPath id="clip0_299_1067">
<rect width="24" height="24" fill="white" transform="translate(0.771423 0.61377)"/>
</clipPath>
</defs>
</svg>
