<svg width="48" height="48" viewBox="0 0 48 48" fill="none" xmlns="http://www.w3.org/2000/svg">
<g clip-path="url(#clip0_397_414)">
<rect width="48" height="48" fill="#101827"/>
<rect width="48" height="47.8719" rx="10.8271" fill="#101827"/>
<path d="M22.5388 7.29846C22.5388 6.45675 21.8565 5.77441 21.0148 5.77441H12.9924C9.00595 5.77441 5.77433 9.00604 5.77433 12.9925V21.0149C5.77433 21.8566 6.45666 22.5389 7.29837 22.5389V22.5389C15.7154 22.5389 22.5388 15.7155 22.5388 7.29846V7.29846Z" fill="#FEDE68"/>
<path d="M25.333 7.29846C25.333 6.45675 26.0153 5.77441 26.8571 5.77441H34.8795C38.8659 5.77441 42.0975 9.00604 42.0975 12.9925V21.0149C42.0975 21.8566 41.4152 22.5389 40.5735 22.5389V22.5389C32.1564 22.5389 25.333 15.7155 25.333 7.29846V7.29846Z" fill="#FF9A62"/>
<path d="M7.29846 25.333C6.45675 25.333 5.77441 26.0153 5.77441 26.8571L5.77441 34.8795C5.77441 38.8659 9.00604 42.0975 12.9925 42.0975L21.0149 42.0975C21.8566 42.0975 22.5389 41.4152 22.5389 40.5735V40.5735C22.5389 32.1564 15.7155 25.333 7.29846 25.333V25.333Z" fill="#C8A0FF"/>
<path d="M25.333 40.5736C25.333 41.4153 26.0153 42.0977 26.8571 42.0977H34.8795C38.8659 42.0977 42.0975 38.866 42.0975 34.8796V26.8572C42.0975 26.0155 41.4152 25.3332 40.5735 25.3332V25.3332C32.1564 25.3332 25.333 32.1565 25.333 40.5736V40.5736Z" fill="#95DBFC"/>
</g>
<defs>
<clipPath id="clip0_397_414">
<rect width="48" height="48" fill="white"/>
</clipPath>
</defs>
</svg>
