<svg width="111" height="29" viewBox="0 0 111 29" fill="none" xmlns="http://www.w3.org/2000/svg">
<rect width="28.463" height="28.3871" rx="6.42023" fill="#101827"/>
<path d="M13.3651 4.32804C13.3651 3.82893 12.9605 3.42432 12.4614 3.42432H7.70426C5.3404 3.42432 3.42411 5.34061 3.42411 7.70447V12.4616C3.42411 12.9607 3.82872 13.3653 4.32783 13.3653V13.3653C9.31899 13.3653 13.3651 9.3192 13.3651 4.32804V4.32804Z" fill="#FEDE68"/>
<path d="M15.022 4.32804C15.022 3.82893 15.4266 3.42432 15.9257 3.42432H20.6828C23.0467 3.42432 24.963 5.34061 24.963 7.70447V12.4616C24.963 12.9607 24.5584 13.3653 24.0593 13.3653V13.3653C19.0681 13.3653 15.022 9.3192 15.022 4.32804V4.32804Z" fill="#FF9A62"/>
<path d="M4.32786 15.022C3.82875 15.022 3.42413 15.4266 3.42413 15.9257L3.42413 20.6828C3.42413 23.0467 5.34042 24.963 7.70429 24.963L12.4614 24.963C12.9605 24.963 13.3651 24.5584 13.3651 24.0593V24.0593C13.3651 19.0681 9.31901 15.022 4.32786 15.022V15.022Z" fill="#C8A0FF"/>
<path d="M15.022 24.0592C15.022 24.5583 15.4266 24.9629 15.9257 24.9629H20.6828C23.0467 24.9629 24.963 23.0466 24.963 20.6827V15.9256C24.963 15.4265 24.5584 15.0219 24.0593 15.0219V15.0219C19.0681 15.0219 15.022 19.068 15.022 24.0592V24.0592Z" fill="#95DBFC"/>
<path d="M39.2233 21.9355C38.1605 21.9355 37.1717 21.7472 36.257 21.3705C35.3422 20.9938 34.5418 20.4692 33.8557 19.7966C33.1831 19.1239 32.6517 18.3437 32.2616 17.4558C31.8849 16.5545 31.6966 15.5859 31.6966 14.5501C31.6966 13.5008 31.8849 12.5322 32.2616 11.6443C32.6382 10.7565 33.1629 9.98293 33.8355 9.32376C34.5216 8.65113 35.3153 8.13321 36.2166 7.76999C37.1314 7.39332 38.1202 7.20498 39.1829 7.20498C40.2591 7.20498 41.2479 7.39332 42.1492 7.76999C43.064 8.13321 43.8577 8.65113 44.5303 9.32376C45.2164 9.98293 45.7477 10.7632 46.1244 11.6645C46.5011 12.5524 46.6894 13.5209 46.6894 14.5702C46.6894 15.6061 46.5011 16.5747 46.1244 17.476C45.7477 18.3639 45.2164 19.1441 44.5303 19.8167C43.8577 20.4759 43.0707 20.9938 42.1694 21.3705C41.268 21.7472 40.286 21.9355 39.2233 21.9355ZM45.5796 22.8234L38.9206 16.1644L40.7568 14.3281L47.4158 20.9871L45.5796 22.8234ZM39.1829 19.0499C40.0439 19.0499 40.7905 18.8616 41.4227 18.4849C42.055 18.1083 42.546 17.5836 42.8958 16.911C43.259 16.2249 43.4406 15.4379 43.4406 14.5501C43.4406 13.8774 43.3397 13.2721 43.1379 12.734C42.9362 12.1824 42.6469 11.7116 42.2703 11.3215C41.8936 10.9179 41.4429 10.6152 40.9183 10.4134C40.4071 10.1982 39.8286 10.0906 39.1829 10.0906C38.3354 10.0906 37.5955 10.2789 36.9632 10.6556C36.331 11.0188 35.8332 11.5367 35.47 12.2093C35.1202 12.8685 34.9454 13.6487 34.9454 14.5501C34.9454 15.2227 35.0462 15.8348 35.248 16.3863C35.4498 16.9379 35.7391 17.4155 36.1157 17.819C36.4924 18.2092 36.9363 18.5118 37.4475 18.7271C37.9722 18.9423 38.5506 19.0499 39.1829 19.0499ZM52.427 21.9153C51.5256 21.9153 50.7252 21.7337 50.0257 21.3705C49.3396 20.9938 48.8015 20.4826 48.4114 19.8369C48.0213 19.1777 47.8262 18.4244 47.8262 17.5769V11.8865H50.9136V17.5365C50.9136 17.8728 50.9674 18.1621 51.075 18.4042C51.1961 18.6464 51.3709 18.8347 51.5996 18.9692C51.8283 19.1037 52.1041 19.171 52.427 19.171C52.8844 19.171 53.2476 19.0298 53.5166 18.7473C53.7857 18.4513 53.9202 18.0477 53.9202 17.5365V11.8865H57.0076V17.5567C57.0076 18.4177 56.8125 19.1777 56.4224 19.8369C56.0322 20.4826 55.4941 20.9938 54.8081 21.3705C54.122 21.7337 53.3283 21.9153 52.427 21.9153ZM58.3406 21.6934V11.8865H61.428V21.6934H58.3406ZM59.8944 10.5345C59.4101 10.5345 59.0065 10.3731 58.6837 10.0502C58.3742 9.71388 58.2195 9.31031 58.2195 8.83947C58.2195 8.35518 58.3742 7.9516 58.6837 7.62874C59.0065 7.30588 59.4101 7.14445 59.8944 7.14445C60.3787 7.14445 60.7755 7.30588 61.0849 7.62874C61.3943 7.9516 61.549 8.35518 61.549 8.83947C61.549 9.31031 61.3943 9.71388 61.0849 10.0502C60.7755 10.3731 60.3787 10.5345 59.8944 10.5345ZM62.3712 19.8773L67.2948 13.6824H71.0481L66.1244 19.8773H62.3712ZM62.3712 21.6934V19.8773L64.5707 19.1105H70.927V21.6934H62.3712ZM62.7344 14.4694V11.8865H71.0481V13.6824L68.8687 14.4694H62.7344ZM72.1063 21.6934V7.04356H75.1937V21.6934H72.1063ZM80.8587 21.8951C79.9574 21.8951 79.1503 21.6732 78.4373 21.2292C77.7377 20.7853 77.1795 20.1799 76.7624 19.4132C76.3589 18.6464 76.1571 17.7719 76.1571 16.7899C76.1571 15.8079 76.3589 14.9335 76.7624 14.1667C77.1795 13.3999 77.7377 12.7945 78.4373 12.3506C79.1503 11.9066 79.9574 11.6847 80.8587 11.6847C81.5179 11.6847 82.1098 11.8125 82.6345 12.0681C83.1726 12.3237 83.6098 12.6802 83.9461 13.1376C84.2824 13.5815 84.4707 14.0927 84.5111 14.6711V18.9087C84.4707 19.4871 84.2824 20.0051 83.9461 20.4625C83.6232 20.9064 83.1927 21.2562 82.6546 21.5118C82.1165 21.7673 81.5179 21.8951 80.8587 21.8951ZM81.4843 19.1105C82.1434 19.1105 82.6748 18.8952 83.0784 18.4648C83.482 18.0208 83.6838 17.4625 83.6838 16.7899C83.6838 16.3325 83.5896 15.929 83.4013 15.5792C83.2264 15.2294 82.9708 14.9604 82.6345 14.772C82.3116 14.5702 81.9349 14.4694 81.5045 14.4694C81.074 14.4694 80.6906 14.5702 80.3543 14.772C80.0314 14.9604 79.7691 15.2294 79.5673 15.5792C79.379 15.929 79.2848 16.3325 79.2848 16.7899C79.2848 17.2338 79.379 17.6307 79.5673 17.9805C79.7556 18.3302 80.0179 18.606 80.3543 18.8078C80.6906 19.0096 81.0672 19.1105 81.4843 19.1105ZM83.5627 21.6934V19.0499L84.0268 16.6688L83.5627 14.2877V11.8865H86.5895V21.6934H83.5627ZM94.6353 21.6934V16.1038C94.6353 15.5926 94.4739 15.1823 94.151 14.8729C93.8416 14.5501 93.4448 14.3886 92.9605 14.3886C92.6242 14.3886 92.3282 14.4626 92.0726 14.6106C91.817 14.7451 91.6152 14.9469 91.4673 15.216C91.3193 15.4716 91.2453 15.7675 91.2453 16.1038L90.0547 15.5186C90.0547 14.7519 90.2229 14.0792 90.5592 13.5008C90.8955 12.9223 91.3596 12.4784 91.9515 12.169C92.5569 11.8461 93.2363 11.6847 93.9896 11.6847C94.716 11.6847 95.355 11.8596 95.9066 12.2093C96.4716 12.5456 96.9155 12.9963 97.2384 13.5613C97.5613 14.1263 97.7227 14.7451 97.7227 15.4178V21.6934H94.6353ZM88.1579 21.6934V11.8865H91.2453V21.6934H88.1579ZM103.277 21.8951C102.349 21.8951 101.522 21.6732 100.795 21.2292C100.082 20.7853 99.5172 20.1799 99.1002 19.4132C98.6966 18.6464 98.4948 17.7719 98.4948 16.7899C98.4948 15.8079 98.6966 14.9335 99.1002 14.1667C99.5172 13.3999 100.082 12.7945 100.795 12.3506C101.522 11.9066 102.349 11.6847 103.277 11.6847C103.95 11.6847 104.555 11.8125 105.093 12.0681C105.645 12.3237 106.096 12.6802 106.445 13.1376C106.808 13.5815 107.01 14.0927 107.051 14.6711V18.8078C107.01 19.3863 106.815 19.9109 106.465 20.3817C106.116 20.8391 105.665 21.2091 105.113 21.4916C104.562 21.7606 103.95 21.8951 103.277 21.8951ZM103.822 19.1105C104.266 19.1105 104.649 19.0163 104.972 18.828C105.295 18.6262 105.551 18.3504 105.739 18.0006C105.927 17.6509 106.022 17.2473 106.022 16.7899C106.022 16.3325 105.927 15.9357 105.739 15.5994C105.564 15.2496 105.309 14.9738 104.972 14.772C104.649 14.5702 104.273 14.4694 103.842 14.4694C103.412 14.4694 103.028 14.5702 102.692 14.772C102.369 14.9738 102.107 15.2496 101.905 15.5994C101.717 15.9491 101.623 16.346 101.623 16.7899C101.623 17.2338 101.717 17.6307 101.905 17.9805C102.093 18.3302 102.356 18.606 102.692 18.8078C103.028 19.0096 103.405 19.1105 103.822 19.1105ZM108.927 21.6934H105.9V19.0499L106.365 16.6688L105.84 14.2877V7.04356H108.927V21.6934Z" fill="white"/>
</svg>
